<svg id="svg" version="1.1" xmlns="http://www.w3.org/2000/svg" xmlns:xlink="http://www.w3.org/1999/xlink" width="400" height="401.3840830449827" viewBox="0, 0, 400,401.3840830449827"><g id="svgg"><path id="path0" d="M180.400 21.800 C 179.630 22.097,178.231 22.353,177.290 22.370 C 176.350 22.386,174.556 22.760,173.304 23.200 C 172.052 23.640,170.623 24.000,170.127 24.000 C 169.632 24.000,168.636 24.245,167.914 24.543 C 166.214 25.247,162.929 26.368,161.400 26.767 C 160.740 26.939,158.993 27.647,157.517 28.340 C 156.041 29.033,154.661 29.600,154.450 29.600 C 154.240 29.600,152.657 30.212,150.934 30.960 C 149.210 31.707,146.810 32.707,145.600 33.181 C 144.390 33.655,143.040 34.208,142.600 34.411 C 141.606 34.868,138.599 35.938,137.000 36.405 C 134.953 37.002,131.847 38.046,130.800 38.489 C 130.250 38.721,129.170 39.055,128.400 39.229 C 126.664 39.623,123.415 40.703,121.740 41.443 C 121.046 41.749,120.231 42.000,119.928 42.000 C 118.244 42.000,105.141 48.628,102.409 50.862 C 101.644 51.488,100.811 52.000,100.558 52.000 C 100.305 52.000,99.867 52.278,99.585 52.618 C 99.303 52.958,97.346 54.616,95.236 56.303 C 93.126 57.990,89.240 61.459,86.600 64.013 C 83.960 66.566,80.450 69.745,78.800 71.078 C 75.585 73.673,67.222 82.112,64.605 85.400 C 63.730 86.500,61.616 88.897,59.907 90.727 C 58.198 92.556,56.800 94.219,56.800 94.421 C 56.800 94.624,55.835 95.927,54.656 97.317 C 53.476 98.707,52.284 100.285,52.006 100.822 C 51.728 101.360,51.151 102.184,50.725 102.652 C 48.570 105.022,38.000 124.900,38.000 126.582 C 38.000 126.872,36.576 130.180,34.443 134.844 C 33.979 135.858,33.600 136.947,33.600 137.264 C 33.600 137.581,33.438 138.011,33.241 138.220 C 32.809 138.677,30.800 143.680,30.800 144.299 C 30.800 144.539,30.541 145.245,30.225 145.868 C 29.194 147.898,28.000 152.219,28.000 153.920 C 28.000 154.835,27.685 156.352,27.300 157.292 C 26.226 159.912,26.226 208.673,27.300 210.761 C 27.685 211.510,28.000 212.902,28.000 213.853 C 28.000 214.805,28.256 216.262,28.568 217.092 C 28.881 217.921,29.247 219.267,29.383 220.083 C 29.519 220.899,29.892 222.069,30.212 222.683 C 30.533 223.297,30.802 224.070,30.811 224.400 C 30.820 224.730,31.175 225.720,31.600 226.600 C 32.025 227.480,32.379 228.345,32.386 228.522 C 32.401 228.871,33.364 231.102,35.267 235.200 C 35.932 236.630,36.818 238.540,37.238 239.444 C 37.657 240.348,38.000 241.221,38.000 241.383 C 38.000 241.677,38.751 243.505,39.816 245.800 C 40.122 246.460,40.493 247.540,40.641 248.200 C 40.789 248.860,41.042 249.580,41.203 249.800 C 41.364 250.020,41.721 250.920,41.996 251.800 C 42.271 252.680,42.655 253.571,42.848 253.780 C 43.042 253.989,43.200 254.460,43.200 254.827 C 43.200 255.466,44.270 258.470,45.400 261.000 C 45.694 261.660,46.026 262.650,46.137 263.200 C 46.249 263.750,46.817 265.460,47.401 267.000 C 47.985 268.540,48.619 270.340,48.809 271.000 C 49.616 273.801,50.481 276.275,51.021 277.332 C 51.340 277.955,51.600 278.909,51.600 279.452 C 51.600 279.995,51.845 280.926,52.144 281.520 C 52.443 282.114,52.792 283.281,52.920 284.112 C 53.049 284.944,53.434 286.187,53.777 286.874 C 54.120 287.561,54.401 288.590,54.402 289.161 C 54.404 289.733,54.674 290.716,55.002 291.346 C 55.331 291.976,55.600 292.684,55.600 292.919 C 55.600 293.941,58.835 300.372,60.356 302.374 C 60.930 303.129,61.670 304.243,62.000 304.848 C 62.613 305.974,67.016 311.240,70.600 315.137 C 71.700 316.332,74.400 318.849,76.600 320.729 C 78.800 322.610,80.934 324.487,81.342 324.902 C 82.566 326.147,91.195 332.649,94.321 334.681 C 95.267 335.296,96.769 336.385,97.659 337.100 C 98.548 337.815,99.455 338.400,99.674 338.400 C 99.893 338.400,100.809 339.030,101.708 339.800 C 102.608 340.570,103.568 341.200,103.841 341.200 C 104.115 341.200,104.847 341.620,105.469 342.133 C 106.091 342.646,108.024 343.833,109.765 344.769 C 114.245 347.180,115.584 348.091,117.368 349.944 C 119.474 352.132,125.938 355.195,128.474 355.206 C 129.203 355.209,130.520 355.471,131.400 355.788 C 132.509 356.188,134.903 356.378,139.200 356.407 C 146.571 356.457,150.027 356.830,153.800 357.981 C 155.340 358.451,157.590 359.084,158.800 359.389 C 162.451 360.308,165.093 361.114,165.943 361.569 C 166.385 361.806,167.293 362.000,167.960 362.000 C 168.627 362.000,169.764 362.257,170.486 362.572 C 172.344 363.380,178.854 365.208,183.000 366.086 C 184.100 366.319,185.567 366.755,186.260 367.055 C 186.954 367.355,187.777 367.600,188.090 367.600 C 188.403 367.600,190.113 368.230,191.890 369.000 L 195.120 370.400 202.734 370.400 C 207.426 370.400,210.780 370.228,211.474 369.951 C 212.093 369.704,213.680 369.274,215.000 368.995 C 218.234 368.312,221.141 367.253,226.719 364.725 C 228.105 364.097,229.995 363.313,230.919 362.983 C 231.844 362.653,233.680 361.995,235.000 361.520 C 237.723 360.542,247.249 360.358,249.900 361.233 C 250.715 361.502,252.285 361.589,253.740 361.445 C 261.164 360.710,262.794 360.467,264.800 359.798 C 268.644 358.516,274.132 356.298,276.200 355.190 C 277.300 354.601,280.540 352.894,283.400 351.397 C 286.260 349.900,288.780 348.545,289.000 348.386 C 289.220 348.227,291.020 347.236,293.000 346.184 C 294.980 345.132,297.157 343.851,297.838 343.336 C 298.519 342.821,299.252 342.400,299.468 342.400 C 299.684 342.400,300.297 341.932,300.830 341.361 C 301.364 340.790,302.430 339.998,303.200 339.602 C 303.970 339.206,305.410 338.185,306.400 337.333 C 307.390 336.481,308.920 335.298,309.800 334.703 C 311.806 333.348,321.140 323.959,322.664 321.763 C 323.289 320.863,324.520 319.209,325.400 318.087 C 326.280 316.965,327.540 315.208,328.200 314.183 C 328.860 313.157,329.710 311.842,330.089 311.259 C 330.468 310.677,331.166 309.480,331.641 308.600 C 332.116 307.720,332.821 306.550,333.208 306.000 C 333.595 305.450,334.477 303.920,335.169 302.600 C 335.861 301.280,336.642 299.840,336.906 299.400 C 339.008 295.886,339.740 294.558,341.318 291.400 C 342.307 289.420,343.602 286.720,344.195 285.400 C 346.491 280.292,349.262 274.888,350.895 272.331 C 351.833 270.863,352.916 269.153,353.303 268.531 C 353.689 267.909,354.811 266.320,355.796 265.000 C 359.458 260.090,362.445 255.328,364.437 251.224 C 365.564 248.901,366.649 246.730,366.846 246.400 C 367.044 246.070,367.308 245.530,367.434 245.200 C 367.974 243.783,369.325 240.506,369.824 239.400 C 370.345 238.247,372.372 233.010,374.082 228.400 C 374.531 227.190,375.146 225.722,375.449 225.138 C 375.752 224.554,376.000 223.735,376.000 223.318 C 376.000 222.901,376.171 222.389,376.379 222.180 C 376.588 221.971,377.025 220.778,377.350 219.528 C 377.675 218.279,378.135 216.896,378.371 216.455 C 378.607 216.014,378.800 215.218,378.800 214.688 C 378.800 214.157,379.092 213.138,379.448 212.424 C 379.804 211.709,380.228 210.107,380.390 208.862 C 380.551 207.618,380.889 206.093,381.142 205.474 C 381.792 203.877,381.725 196.013,381.044 193.914 C 380.738 192.971,380.379 190.919,380.246 189.354 C 380.113 187.789,379.743 185.882,379.423 185.116 C 379.039 184.198,378.785 181.759,378.677 177.961 C 378.587 174.793,378.308 171.693,378.057 171.074 C 377.806 170.455,377.596 169.285,377.591 168.474 C 377.586 167.663,377.226 166.215,376.791 165.256 C 376.356 164.297,375.999 163.127,375.997 162.656 C 375.994 161.804,375.352 159.832,372.593 152.200 C 371.798 150.000,370.904 147.457,370.607 146.549 C 370.310 145.640,369.898 144.560,369.692 144.149 C 369.485 143.737,368.903 142.140,368.398 140.600 C 367.893 139.060,367.296 137.350,367.071 136.800 C 366.606 135.662,365.989 133.671,365.025 130.200 C 364.659 128.880,364.188 127.629,363.979 127.420 C 363.771 127.211,363.600 126.440,363.600 125.707 C 363.600 124.974,363.330 123.728,363.000 122.938 C 362.670 122.149,362.400 121.112,362.400 120.636 C 362.400 120.159,362.040 119.063,361.600 118.200 C 361.160 117.337,360.800 116.317,360.800 115.934 C 360.800 114.958,358.155 110.057,355.359 105.851 C 354.062 103.899,352.640 101.704,352.200 100.972 C 351.760 100.240,350.905 98.912,350.300 98.021 C 349.695 97.129,348.774 95.725,348.254 94.900 C 345.319 90.246,343.307 87.017,342.600 85.826 C 340.558 82.386,335.560 76.490,330.138 71.124 C 323.889 64.941,321.305 62.955,308.600 54.573 C 305.740 52.686,303.040 50.820,302.600 50.426 C 301.887 49.787,292.699 43.421,291.483 42.723 C 286.218 39.700,279.223 36.413,277.999 36.387 C 277.670 36.380,277.051 36.110,276.624 35.787 C 276.196 35.464,275.598 35.200,275.293 35.200 C 274.988 35.200,273.178 34.554,271.269 33.765 C 269.361 32.975,266.900 31.964,265.800 31.517 C 264.700 31.070,263.322 30.456,262.738 30.152 C 262.154 29.849,261.372 29.600,260.999 29.600 C 260.626 29.600,259.754 29.338,259.060 29.018 C 257.015 28.073,254.327 27.165,252.400 26.768 C 251.410 26.563,249.921 26.127,249.092 25.798 C 248.262 25.469,246.769 25.200,245.772 25.200 C 244.776 25.200,243.473 24.948,242.877 24.640 C 242.258 24.320,239.827 23.964,237.197 23.809 C 234.669 23.659,231.986 23.348,231.236 23.117 C 230.486 22.885,226.706 22.562,222.836 22.398 C 218.966 22.234,215.080 21.902,214.200 21.660 C 211.719 20.976,182.221 21.099,180.400 21.800 M216.234 29.159 C 221.312 29.331,225.714 29.623,226.016 29.810 C 226.317 29.996,229.182 30.285,232.382 30.453 C 235.664 30.624,239.056 31.028,240.164 31.378 C 241.244 31.720,242.774 32.006,243.564 32.014 C 244.354 32.022,245.450 32.286,246.000 32.600 C 246.550 32.914,247.451 33.178,248.003 33.186 C 248.555 33.194,250.535 33.753,252.403 34.429 C 254.271 35.106,256.262 35.804,256.827 35.981 C 257.392 36.158,258.202 36.491,258.627 36.722 C 259.052 36.953,262.010 38.388,265.200 39.910 C 268.390 41.432,272.979 43.625,275.398 44.783 C 283.316 48.574,290.120 52.760,298.200 58.810 C 299.960 60.128,302.300 61.834,303.400 62.602 C 304.500 63.370,307.830 65.800,310.800 68.002 C 313.770 70.204,316.926 72.499,317.813 73.103 C 322.297 76.152,331.198 83.925,333.112 86.461 C 333.834 87.417,335.139 89.126,336.012 90.257 C 336.886 91.389,337.600 92.439,337.600 92.592 C 337.600 92.744,338.115 93.619,338.744 94.535 C 339.373 95.451,340.567 97.280,341.396 98.600 C 344.127 102.947,344.657 103.765,347.040 107.317 C 352.964 116.146,354.451 119.073,355.617 124.200 C 355.817 125.080,356.247 126.520,356.573 127.400 C 356.898 128.280,357.173 129.417,357.182 129.926 C 357.192 130.436,357.412 131.246,357.670 131.726 C 357.929 132.207,358.272 133.230,358.434 134.000 C 358.596 134.770,359.205 136.660,359.788 138.200 C 360.371 139.740,360.945 141.360,361.064 141.800 C 361.182 142.240,361.906 144.220,362.672 146.200 C 364.053 149.773,364.280 150.376,365.982 155.000 C 366.468 156.320,367.103 158.030,367.395 158.800 C 368.451 161.594,369.600 165.475,369.600 166.248 C 369.600 166.684,369.812 167.252,370.070 167.510 C 370.329 167.769,370.665 168.840,370.817 169.890 C 370.969 170.941,371.387 172.873,371.746 174.184 C 372.106 175.495,372.400 177.511,372.400 178.665 C 372.400 179.818,372.670 181.798,373.000 183.065 C 373.841 186.293,373.832 203.858,372.988 206.200 C 372.671 207.080,372.401 208.340,372.388 209.000 C 372.375 209.660,372.098 210.920,371.773 211.800 C 371.447 212.680,371.019 214.120,370.822 215.000 C 370.420 216.792,368.148 223.271,365.712 229.572 C 365.165 230.986,364.570 232.426,364.390 232.772 C 364.210 233.117,363.304 235.200,362.377 237.400 C 358.761 245.979,354.961 253.050,349.586 261.200 C 346.271 266.228,344.852 268.745,340.000 278.200 C 336.778 284.480,334.188 288.956,330.400 294.797 C 329.850 295.644,328.068 298.557,326.440 301.269 C 318.634 314.271,314.205 319.586,305.155 326.811 C 299.934 330.980,288.617 338.800,287.805 338.800 C 287.727 338.800,286.074 339.721,284.132 340.847 C 276.218 345.434,268.091 349.165,264.200 349.998 C 263.320 350.187,262.093 350.534,261.474 350.770 C 259.686 351.452,252.396 351.309,250.350 350.552 C 244.521 348.395,235.644 349.646,226.859 353.864 C 224.297 355.094,221.345 356.438,220.300 356.850 C 219.255 357.263,217.455 357.978,216.300 358.441 C 215.145 358.903,213.357 359.430,212.327 359.612 C 211.296 359.794,210.036 360.180,209.527 360.469 C 208.066 361.296,195.649 361.196,192.800 360.334 C 191.590 359.968,189.610 359.394,188.400 359.058 C 187.190 358.723,185.210 358.142,184.000 357.767 C 182.790 357.393,181.170 356.949,180.400 356.782 C 179.630 356.615,178.460 356.284,177.800 356.047 C 177.140 355.809,174.530 354.900,172.000 354.027 C 169.470 353.153,166.140 351.966,164.600 351.388 C 163.060 350.810,161.260 350.183,160.600 349.995 C 158.889 349.509,155.625 348.380,154.086 347.743 C 153.364 347.445,152.172 347.200,151.437 347.200 C 150.702 347.200,149.403 346.956,148.550 346.658 C 147.698 346.360,144.340 345.989,141.090 345.834 C 137.839 345.678,134.185 345.292,132.970 344.975 C 131.755 344.659,130.095 344.399,129.280 344.399 C 126.097 344.396,119.135 340.819,109.800 334.389 C 109.140 333.934,107.716 332.986,106.635 332.281 C 100.692 328.406,93.825 323.525,88.232 319.200 C 86.098 317.550,83.418 315.498,82.276 314.639 C 78.216 311.587,67.433 300.383,65.107 296.800 C 61.788 291.685,61.008 289.833,59.212 282.800 C 58.959 281.810,58.500 280.100,58.192 279.000 C 57.883 277.900,57.421 276.190,57.165 275.200 C 56.909 274.210,56.476 272.770,56.204 272.000 C 55.932 271.230,55.300 269.250,54.800 267.600 C 53.848 264.460,53.472 263.352,52.018 259.400 C 50.016 253.959,48.929 250.836,48.400 249.000 C 47.948 247.430,46.876 244.412,46.411 243.400 C 46.208 242.960,45.655 241.610,45.180 240.400 C 44.705 239.190,42.832 234.690,41.017 230.400 C 37.310 221.639,36.006 217.959,35.986 216.200 C 35.978 215.540,35.714 214.550,35.400 214.000 C 35.086 213.450,34.818 212.280,34.805 211.400 C 34.792 210.520,34.425 208.462,33.991 206.827 C 33.136 203.612,32.813 168.439,33.596 163.800 C 33.782 162.700,34.141 160.540,34.395 159.000 C 35.523 152.147,36.466 149.957,50.018 122.744 C 54.508 113.727,58.443 107.225,61.240 104.200 C 61.850 103.540,63.216 101.880,64.275 100.511 C 72.041 90.471,78.817 83.714,86.751 78.098 C 87.763 77.382,92.102 73.393,96.395 69.233 C 103.076 62.758,110.069 56.800,110.987 56.800 C 111.134 56.800,111.826 56.376,112.527 55.857 C 115.541 53.626,124.664 49.345,128.400 48.409 C 129.972 48.015,136.492 45.843,141.600 44.012 C 142.370 43.736,143.810 43.268,144.800 42.974 C 147.064 42.299,149.956 41.291,151.000 40.811 C 151.816 40.435,153.050 39.945,159.400 37.469 C 166.171 34.830,170.200 33.357,172.400 32.716 C 173.610 32.364,175.860 31.696,177.400 31.232 C 178.940 30.768,180.672 30.391,181.250 30.394 C 181.827 30.397,183.065 30.130,184.000 29.800 C 184.935 29.470,186.803 29.179,188.150 29.153 C 189.498 29.127,191.140 28.955,191.800 28.770 C 192.965 28.445,196.965 28.508,216.234 29.159 M196.576 57.387 C 196.149 57.710,195.300 57.980,194.688 57.987 C 193.243 58.004,188.857 59.840,187.692 60.915 C 186.495 62.021,186.732 62.527,188.633 62.925 C 192.071 63.645,193.289 63.675,194.926 63.080 C 195.847 62.745,197.320 62.353,198.200 62.208 C 199.080 62.063,200.571 61.687,201.514 61.372 C 203.455 60.724,221.162 60.579,224.400 61.184 C 228.698 61.988,231.105 62.476,232.600 62.846 C 233.480 63.065,234.920 63.402,235.800 63.596 C 238.752 64.246,250.993 69.376,257.332 72.621 C 257.955 72.939,258.644 73.200,258.863 73.200 C 260.029 73.200,280.506 84.066,283.473 86.259 C 284.174 86.777,284.847 87.200,284.969 87.200 C 286.520 87.200,294.029 93.676,296.206 96.890 C 297.827 99.283,299.116 99.609,300.900 98.077 C 302.207 96.954,301.682 95.967,297.535 91.753 C 293.978 88.139,292.205 86.685,287.637 83.639 C 287.067 83.259,285.989 82.530,285.243 82.020 C 280.543 78.806,269.955 73.085,264.000 70.542 C 261.690 69.556,259.440 68.592,259.000 68.400 C 255.985 67.087,254.250 66.400,253.950 66.400 C 253.759 66.400,252.207 65.752,250.501 64.961 C 243.547 61.733,241.237 60.800,240.198 60.800 C 239.703 60.800,238.613 60.514,237.776 60.164 C 236.818 59.764,234.094 59.395,230.427 59.170 C 227.222 58.973,223.340 58.635,221.800 58.419 C 214.880 57.448,203.669 58.154,198.800 59.865 C 197.810 60.214,196.190 60.575,195.200 60.669 L 193.400 60.841 194.894 59.420 C 195.914 58.451,196.763 58.000,197.571 58.000 C 198.906 58.000,199.520 57.408,198.565 57.042 C 197.659 56.694,197.443 56.732,196.576 57.387 M174.108 66.277 C 172.289 66.637,171.068 69.060,172.223 70.019 C 174.059 71.543,179.200 69.723,179.200 67.549 C 179.200 66.522,176.403 65.823,174.108 66.277 M161.400 71.200 C 160.520 71.625,159.590 71.979,159.334 71.986 C 159.077 71.994,157.457 72.611,155.734 73.357 C 148.979 76.282,144.467 78.042,141.800 78.792 C 141.140 78.978,140.060 79.317,139.400 79.545 C 136.015 80.717,132.839 81.602,131.972 81.614 C 131.437 81.622,130.550 81.886,130.000 82.200 C 129.450 82.514,128.640 82.775,128.200 82.780 C 127.760 82.785,126.140 83.164,124.600 83.623 C 123.060 84.082,120.810 84.730,119.600 85.064 C 110.410 87.596,104.049 92.479,97.017 102.400 C 96.159 103.610,94.577 105.483,93.501 106.563 C 92.426 107.642,91.069 109.172,90.487 109.963 C 89.905 110.753,88.072 112.911,86.414 114.758 C 81.035 120.749,77.808 125.799,73.222 135.400 C 69.631 142.919,69.674 142.822,67.286 148.600 C 64.378 155.638,63.600 157.732,63.600 158.528 C 63.600 158.919,63.353 159.726,63.052 160.320 C 62.751 160.914,62.378 162.262,62.225 163.315 C 62.072 164.369,61.688 165.848,61.373 166.602 C 61.058 167.357,60.800 168.776,60.800 169.757 C 60.800 170.737,60.592 172.439,60.339 173.538 C 59.652 176.511,61.117 179.240,62.830 178.182 C 63.606 177.702,64.885 174.265,65.205 171.800 C 65.376 170.480,66.269 167.330,67.190 164.800 C 68.111 162.270,69.000 159.570,69.165 158.800 C 69.330 158.030,69.765 156.824,70.133 156.120 C 70.500 155.416,70.800 154.575,70.800 154.252 C 70.800 153.929,71.048 153.155,71.351 152.532 C 72.448 150.279,74.800 144.906,74.800 144.654 C 74.800 143.853,83.893 125.442,85.393 123.204 C 89.688 116.799,93.237 110.783,95.232 106.522 C 97.392 101.909,110.935 92.451,120.000 89.224 C 121.650 88.636,123.393 87.941,123.874 87.678 C 124.354 87.415,125.047 87.200,125.413 87.200 C 125.779 87.200,126.646 86.959,127.340 86.664 C 128.033 86.369,129.950 85.715,131.600 85.210 C 133.250 84.706,135.050 84.118,135.600 83.904 C 136.150 83.689,137.410 83.283,138.400 83.002 C 140.276 82.469,142.295 81.776,144.000 81.082 C 145.015 80.668,149.845 78.878,152.400 77.968 C 156.354 76.561,158.349 75.803,159.800 75.161 C 160.680 74.771,162.437 73.999,163.705 73.446 C 164.973 72.893,166.124 72.143,166.263 71.779 C 166.833 70.295,163.979 69.954,161.400 71.200 M301.829 102.929 C 300.163 104.148,302.700 108.000,305.169 108.000 C 306.747 108.000,307.744 106.766,307.407 105.232 C 306.894 102.897,303.685 101.572,301.829 102.929 M308.550 110.142 C 307.263 111.248,307.592 112.690,309.690 115.134 C 311.777 117.565,315.908 124.171,318.121 128.616 C 320.154 132.699,321.255 135.298,323.281 140.800 C 323.727 142.010,324.341 143.591,324.646 144.314 C 324.951 145.036,325.206 146.026,325.214 146.514 C 325.222 147.001,325.486 147.850,325.800 148.400 C 326.114 148.950,326.378 149.809,326.386 150.310 C 326.394 150.810,326.760 152.244,327.200 153.496 C 327.640 154.748,328.000 156.342,328.000 157.037 C 328.000 157.733,328.270 158.949,328.600 159.738 C 328.930 160.528,329.200 161.952,329.200 162.903 C 329.200 163.854,329.486 165.705,329.836 167.016 C 330.185 168.327,330.627 171.560,330.816 174.200 C 331.006 176.840,331.344 180.260,331.567 181.800 C 332.085 185.363,332.088 200.456,331.573 204.400 C 331.357 206.050,331.024 210.460,330.832 214.200 C 330.641 217.940,330.277 221.528,330.024 222.174 C 329.771 222.820,329.466 224.800,329.347 226.574 C 329.229 228.348,328.877 230.479,328.566 231.308 C 328.255 232.138,328.000 233.600,328.000 234.558 C 328.000 235.516,327.735 237.050,327.411 237.968 C 327.088 238.885,326.715 240.573,326.584 241.718 C 326.452 242.863,326.055 245.099,325.702 246.687 C 324.417 252.466,326.921 253.737,328.682 248.200 C 329.242 246.440,329.925 244.370,330.199 243.600 C 330.779 241.975,331.427 239.586,332.207 236.200 C 332.511 234.880,332.961 232.990,333.206 232.000 C 334.251 227.791,334.529 226.419,335.004 223.139 C 335.280 221.235,335.651 219.441,335.830 219.151 C 336.009 218.862,336.294 217.270,336.465 215.613 C 336.635 213.956,336.973 211.250,337.217 209.600 C 337.460 207.950,337.731 204.710,337.819 202.400 C 337.907 200.090,338.061 196.580,338.162 194.600 C 338.352 190.872,338.357 190.654,338.357 187.000 C 338.357 183.462,338.343 182.780,338.191 179.200 C 337.931 173.070,337.356 167.817,336.840 166.865 C 336.509 166.252,336.426 165.269,336.599 164.011 C 336.808 162.491,336.689 161.751,336.031 160.461 C 335.548 159.514,335.200 158.065,335.200 157.000 C 335.200 155.958,334.855 154.492,334.400 153.600 C 333.957 152.732,333.600 151.242,333.600 150.265 C 333.600 149.182,333.368 148.305,333.000 148.000 C 332.670 147.726,332.394 147.299,332.386 147.051 C 332.379 146.803,332.025 145.880,331.600 145.000 C 331.175 144.120,330.821 143.190,330.814 142.934 C 330.806 142.677,330.188 141.057,329.440 139.334 C 328.693 137.610,327.685 135.210,327.202 134.000 C 326.285 131.707,323.541 126.603,321.681 123.731 C 321.086 122.814,320.060 121.226,319.400 120.204 C 318.740 119.181,317.522 117.533,316.694 116.541 C 315.866 115.550,314.935 114.248,314.625 113.648 C 314.006 112.452,310.648 109.200,310.031 109.200 C 309.819 109.200,309.152 109.624,308.550 110.142 M377.783 174.772 C 378.112 175.305,377.282 175.717,376.492 175.414 C 375.916 175.193,375.904 175.105,376.411 174.785 C 377.162 174.310,377.495 174.307,377.783 174.772 M48.105 190.211 C 46.747 191.162,46.456 193.554,47.587 194.470 C 50.119 196.520,57.600 194.834,57.600 192.212 C 57.600 189.961,50.575 188.481,48.105 190.211 M53.903 196.954 C 53.520 197.245,51.930 197.590,50.369 197.721 C 45.378 198.140,44.487 200.792,49.333 200.804 C 50.250 200.807,51.873 201.074,52.940 201.397 C 58.882 203.200,61.661 202.381,61.029 199.013 C 60.584 196.640,56.045 195.329,53.903 196.954 M62.550 219.387 C 62.414 219.741,62.595 221.070,62.951 222.341 C 63.308 223.612,63.600 225.231,63.600 225.939 C 63.600 226.647,63.850 227.823,64.155 228.554 C 64.460 229.284,64.841 230.673,65.002 231.641 C 65.163 232.608,65.543 233.886,65.847 234.480 C 66.151 235.074,66.400 235.923,66.400 236.367 C 66.400 236.810,66.649 237.764,66.954 238.486 C 67.259 239.209,67.915 240.880,68.412 242.200 C 70.037 246.515,73.771 253.696,77.253 259.200 C 83.860 269.645,85.772 272.631,87.976 275.946 C 89.199 277.786,90.650 279.969,91.200 280.796 C 95.027 286.551,96.467 288.325,100.482 292.234 C 102.967 294.653,105.810 297.180,106.800 297.850 C 107.790 298.520,109.770 299.875,111.200 300.862 C 112.630 301.849,118.570 305.052,124.400 307.980 C 137.095 314.357,143.845 317.862,145.200 318.783 C 146.623 319.749,156.653 324.613,158.800 325.377 C 159.790 325.730,162.040 326.484,163.800 327.054 C 165.560 327.624,167.591 328.340,168.314 328.645 C 169.036 328.950,170.076 329.200,170.624 329.200 C 171.172 329.200,172.644 329.560,173.896 330.000 C 175.148 330.440,176.652 330.800,177.237 330.800 C 177.823 330.800,178.949 331.070,179.738 331.400 C 180.528 331.730,181.945 332.008,182.887 332.018 C 183.829 332.027,185.320 332.301,186.200 332.625 C 187.080 332.949,189.510 333.381,191.600 333.584 C 193.690 333.787,196.029 334.144,196.797 334.377 C 199.053 335.060,229.750 334.943,232.227 334.241 C 233.312 333.934,235.212 333.575,236.450 333.444 C 237.687 333.312,239.217 332.935,239.850 332.605 C 240.482 332.275,241.382 332.004,241.849 332.002 C 242.316 332.001,243.576 331.625,244.649 331.167 C 245.722 330.709,247.230 330.066,248.000 329.738 C 250.262 328.774,253.993 326.791,258.800 324.000 C 260.230 323.170,263.524 321.471,266.121 320.225 C 268.717 318.979,271.514 317.353,272.335 316.611 C 273.157 315.869,275.802 314.094,278.214 312.667 C 280.626 311.241,283.389 309.472,284.354 308.737 C 285.319 308.001,287.685 306.320,289.612 305.000 C 300.372 297.630,310.756 287.724,317.632 278.269 C 319.012 276.372,321.200 272.925,321.200 272.649 C 321.200 272.488,322.055 271.054,323.100 269.463 C 326.479 264.317,327.152 260.812,324.826 260.468 C 323.557 260.280,322.789 261.133,320.842 264.892 C 316.855 272.591,307.192 284.122,301.960 287.426 C 301.134 287.947,299.788 288.964,298.968 289.687 C 298.148 290.409,296.895 291.360,296.183 291.800 C 292.918 293.817,287.215 297.678,285.400 299.100 C 283.237 300.795,273.294 307.372,269.400 309.683 C 261.688 314.260,259.714 315.363,255.000 317.721 C 252.140 319.151,248.540 320.799,247.000 321.383 C 245.460 321.966,243.609 322.704,242.886 323.022 C 242.164 323.340,241.305 323.600,240.978 323.600 C 240.651 323.600,239.082 323.947,237.492 324.370 C 235.901 324.794,233.790 325.347,232.800 325.600 C 231.810 325.853,228.930 326.220,226.400 326.416 C 223.870 326.612,220.540 326.953,219.000 327.173 C 214.621 327.800,198.700 327.682,195.600 327.000 C 194.170 326.685,191.548 326.422,189.773 326.414 C 187.998 326.406,185.658 326.149,184.573 325.841 C 183.488 325.534,181.610 325.173,180.400 325.040 C 179.190 324.906,177.480 324.535,176.600 324.216 C 175.720 323.896,174.316 323.627,173.480 323.618 C 172.644 323.608,171.474 323.355,170.880 323.056 C 170.286 322.756,169.063 322.399,168.162 322.261 C 165.186 321.806,158.730 319.100,147.000 313.391 C 142.380 311.143,137.340 308.717,135.800 308.000 C 122.170 301.655,113.680 297.107,108.173 293.200 C 105.473 291.284,98.532 284.515,97.510 282.800 C 97.051 282.030,96.101 280.770,95.398 280.000 C 94.202 278.690,92.799 276.680,88.277 269.800 C 87.265 268.260,85.531 265.740,84.424 264.200 C 76.595 253.310,73.278 247.114,70.611 238.400 C 70.309 237.410,69.675 235.340,69.203 233.800 C 68.732 232.260,68.192 230.162,68.003 229.139 C 67.815 228.115,67.377 226.729,67.030 226.058 C 66.684 225.388,66.399 224.606,66.398 224.320 C 66.388 221.588,63.249 217.564,62.550 219.387 " stroke="none" fill="#050505" fill-rule="evenodd"></path><path id="path1" d="M191.800 28.770 C 191.140 28.955,189.498 29.127,188.150 29.153 C 186.803 29.179,184.935 29.470,184.000 29.800 C 183.065 30.130,181.827 30.397,181.250 30.394 C 180.672 30.391,178.940 30.768,177.400 31.232 C 175.860 31.696,173.610 32.364,172.400 32.716 C 170.200 33.357,166.171 34.830,159.400 37.469 C 153.050 39.945,151.816 40.435,151.000 40.811 C 149.956 41.291,147.064 42.299,144.800 42.974 C 143.810 43.268,142.370 43.736,141.600 44.012 C 136.492 45.843,129.972 48.015,128.400 48.409 C 124.664 49.345,115.541 53.626,112.527 55.857 C 111.826 56.376,111.134 56.800,110.987 56.800 C 110.069 56.800,103.076 62.758,96.395 69.233 C 92.102 73.393,87.763 77.382,86.751 78.098 C 78.817 83.714,72.041 90.471,64.275 100.511 C 63.216 101.880,61.850 103.540,61.240 104.200 C 58.443 107.225,54.508 113.727,50.018 122.744 C 36.466 149.957,35.523 152.147,34.395 159.000 C 34.141 160.540,33.782 162.700,33.596 163.800 C 32.813 168.439,33.136 203.612,33.991 206.827 C 34.425 208.462,34.792 210.520,34.805 211.400 C 34.818 212.280,35.086 213.450,35.400 214.000 C 35.714 214.550,35.978 215.540,35.986 216.200 C 36.006 217.959,37.310 221.639,41.017 230.400 C 42.832 234.690,44.705 239.190,45.180 240.400 C 45.655 241.610,46.208 242.960,46.411 243.400 C 46.876 244.412,47.948 247.430,48.400 249.000 C 48.929 250.836,50.016 253.959,52.018 259.400 C 53.472 263.352,53.848 264.460,54.800 267.600 C 55.300 269.250,55.932 271.230,56.204 272.000 C 56.476 272.770,56.909 274.210,57.165 275.200 C 57.421 276.190,57.883 277.900,58.192 279.000 C 58.500 280.100,58.959 281.810,59.212 282.800 C 61.008 289.833,61.788 291.685,65.107 296.800 C 67.433 300.383,78.216 311.587,82.276 314.639 C 83.418 315.498,86.098 317.550,88.232 319.200 C 93.825 323.525,100.692 328.406,106.635 332.281 C 107.716 332.986,109.140 333.934,109.800 334.389 C 119.135 340.819,126.097 344.396,129.280 344.399 C 130.095 344.399,131.755 344.659,132.970 344.975 C 134.185 345.292,137.839 345.678,141.090 345.834 C 144.340 345.989,147.698 346.360,148.550 346.658 C 149.403 346.956,150.702 347.200,151.437 347.200 C 152.172 347.200,153.364 347.445,154.086 347.743 C 155.625 348.380,158.889 349.509,160.600 349.995 C 161.260 350.183,163.060 350.810,164.600 351.388 C 166.140 351.966,169.470 353.153,172.000 354.027 C 174.530 354.900,177.140 355.809,177.800 356.047 C 178.460 356.284,179.630 356.615,180.400 356.782 C 181.170 356.949,182.790 357.393,184.000 357.767 C 185.210 358.142,187.190 358.723,188.400 359.058 C 189.610 359.394,191.590 359.968,192.800 360.334 C 195.649 361.196,208.066 361.296,209.527 360.469 C 210.036 360.180,211.296 359.794,212.327 359.612 C 213.357 359.430,215.145 358.903,216.300 358.441 C 217.455 357.978,219.255 357.263,220.300 356.850 C 221.345 356.438,224.297 355.094,226.859 353.864 C 235.644 349.646,244.521 348.395,250.350 350.552 C 252.396 351.309,259.686 351.452,261.474 350.770 C 262.093 350.534,263.320 350.187,264.200 349.998 C 268.091 349.165,276.218 345.434,284.132 340.847 C 286.074 339.721,287.727 338.800,287.805 338.800 C 288.617 338.800,299.934 330.980,305.155 326.811 C 314.205 319.586,318.634 314.271,326.440 301.269 C 328.068 298.557,329.850 295.644,330.400 294.797 C 334.188 288.956,336.778 284.480,340.000 278.200 C 344.852 268.745,346.271 266.228,349.586 261.200 C 354.961 253.050,358.761 245.979,362.377 237.400 C 363.304 235.200,364.210 233.117,364.390 232.772 C 364.570 232.426,365.165 230.986,365.712 229.572 C 368.148 223.271,370.420 216.792,370.822 215.000 C 371.019 214.120,371.447 212.680,371.773 211.800 C 372.098 210.920,372.375 209.660,372.388 209.000 C 372.401 208.340,372.671 207.080,372.988 206.200 C 373.832 203.858,373.841 186.293,373.000 183.065 C 372.670 181.798,372.400 179.818,372.400 178.665 C 372.400 177.511,372.106 175.495,371.746 174.184 C 371.387 172.873,370.969 170.941,370.817 169.890 C 370.665 168.840,370.329 167.769,370.070 167.510 C 369.812 167.252,369.600 166.684,369.600 166.248 C 369.600 165.475,368.451 161.594,367.395 158.800 C 367.103 158.030,366.468 156.320,365.982 155.000 C 364.280 150.376,364.053 149.773,362.672 146.200 C 361.906 144.220,361.182 142.240,361.064 141.800 C 360.945 141.360,360.371 139.740,359.788 138.200 C 359.205 136.660,358.596 134.770,358.434 134.000 C 358.272 133.230,357.929 132.207,357.670 131.726 C 357.412 131.246,357.192 130.436,357.182 129.926 C 357.173 129.417,356.898 128.280,356.573 127.400 C 356.247 126.520,355.817 125.080,355.617 124.200 C 354.451 119.073,352.964 116.146,347.040 107.317 C 344.657 103.765,344.127 102.947,341.396 98.600 C 340.567 97.280,339.373 95.451,338.744 94.535 C 338.115 93.619,337.600 92.744,337.600 92.592 C 337.600 92.439,336.886 91.389,336.012 90.257 C 335.139 89.126,333.834 87.417,333.112 86.461 C 331.198 83.925,322.297 76.152,317.813 73.103 C 316.926 72.499,313.770 70.204,310.800 68.002 C 307.830 65.800,304.500 63.370,303.400 62.602 C 302.300 61.834,299.960 60.128,298.200 58.810 C 290.120 52.760,283.316 48.574,275.398 44.783 C 272.979 43.625,268.390 41.432,265.200 39.910 C 262.010 38.388,259.052 36.953,258.627 36.722 C 258.202 36.491,257.392 36.158,256.827 35.981 C 256.262 35.804,254.271 35.106,252.403 34.429 C 250.535 33.753,248.555 33.194,248.003 33.186 C 247.451 33.178,246.550 32.914,246.000 32.600 C 245.450 32.286,244.354 32.022,243.564 32.014 C 242.774 32.006,241.244 31.720,240.164 31.378 C 239.056 31.028,235.664 30.624,232.382 30.453 C 229.182 30.285,226.317 29.996,226.016 29.810 C 225.513 29.499,218.612 29.189,200.000 28.641 C 196.150 28.528,192.460 28.586,191.800 28.770 M198.565 57.042 C 199.520 57.408,198.906 58.000,197.571 58.000 C 196.763 58.000,195.914 58.451,194.894 59.420 L 193.400 60.841 195.200 60.669 C 196.190 60.575,197.810 60.214,198.800 59.865 C 203.669 58.154,214.880 57.448,221.800 58.419 C 223.340 58.635,227.222 58.973,230.427 59.170 C 234.094 59.395,236.818 59.764,237.776 60.164 C 238.613 60.514,239.703 60.800,240.198 60.800 C 241.237 60.800,243.547 61.733,250.501 64.961 C 252.207 65.752,253.759 66.400,253.950 66.400 C 254.250 66.400,255.985 67.087,259.000 68.400 C 259.440 68.592,261.690 69.556,264.000 70.542 C 269.955 73.085,280.543 78.806,285.243 82.020 C 285.989 82.530,287.067 83.259,287.637 83.639 C 292.205 86.685,293.978 88.139,297.535 91.753 C 301.682 95.967,302.207 96.954,300.900 98.077 C 299.116 99.609,297.827 99.283,296.206 96.890 C 294.029 93.676,286.520 87.200,284.969 87.200 C 284.847 87.200,284.174 86.777,283.473 86.259 C 280.506 84.066,260.029 73.200,258.863 73.200 C 258.644 73.200,257.955 72.939,257.332 72.621 C 250.993 69.376,238.752 64.246,235.800 63.596 C 234.920 63.402,233.480 63.065,232.600 62.846 C 231.105 62.476,228.698 61.988,224.400 61.184 C 221.162 60.579,203.455 60.724,201.514 61.372 C 200.571 61.687,199.080 62.063,198.200 62.208 C 197.320 62.353,195.847 62.745,194.926 63.080 C 193.289 63.675,192.071 63.645,188.633 62.925 C 186.732 62.527,186.495 62.021,187.692 60.915 C 188.857 59.840,193.243 58.004,194.688 57.987 C 195.300 57.980,196.149 57.710,196.576 57.387 C 197.443 56.732,197.659 56.694,198.565 57.042 M178.900 66.675 C 180.548 67.623,177.592 70.427,174.878 70.489 C 171.771 70.560,170.859 69.450,172.408 67.481 C 173.441 66.167,177.206 65.700,178.900 66.675 M165.958 70.766 C 166.940 71.387,166.082 72.408,163.705 73.446 C 162.437 73.999,160.680 74.771,159.800 75.161 C 158.349 75.803,156.354 76.561,152.400 77.968 C 149.845 78.878,145.015 80.668,144.000 81.082 C 142.295 81.776,140.276 82.469,138.400 83.002 C 137.410 83.283,136.150 83.689,135.600 83.904 C 135.050 84.118,133.250 84.706,131.600 85.210 C 129.950 85.715,128.033 86.369,127.340 86.664 C 126.646 86.959,125.779 87.200,125.413 87.200 C 125.047 87.200,124.354 87.415,123.874 87.678 C 123.393 87.941,121.650 88.636,120.000 89.224 C 110.935 92.451,97.392 101.909,95.232 106.522 C 93.237 110.783,89.688 116.799,85.393 123.204 C 83.893 125.442,74.800 143.853,74.800 144.654 C 74.800 144.906,72.448 150.279,71.351 152.532 C 71.048 153.155,70.800 153.929,70.800 154.252 C 70.800 154.575,70.500 155.416,70.133 156.120 C 69.765 156.824,69.330 158.030,69.165 158.800 C 69.000 159.570,68.111 162.270,67.190 164.800 C 66.269 167.330,65.376 170.480,65.205 171.800 C 64.885 174.265,63.606 177.702,62.830 178.182 C 61.117 179.240,59.652 176.511,60.339 173.538 C 60.592 172.439,60.800 170.737,60.800 169.757 C 60.800 168.776,61.058 167.357,61.373 166.602 C 61.688 165.848,62.072 164.369,62.225 163.315 C 62.378 162.262,62.751 160.914,63.052 160.320 C 63.353 159.726,63.600 158.919,63.600 158.528 C 63.600 156.976,68.217 145.880,73.222 135.400 C 77.808 125.799,81.035 120.749,86.414 114.758 C 88.072 112.911,89.905 110.753,90.487 109.963 C 91.069 109.172,92.426 107.642,93.501 106.563 C 94.577 105.483,96.159 103.610,97.017 102.400 C 104.049 92.479,110.410 87.596,119.600 85.064 C 120.810 84.730,123.060 84.082,124.600 83.623 C 126.140 83.164,127.760 82.785,128.200 82.780 C 128.640 82.775,129.450 82.514,130.000 82.200 C 130.550 81.886,131.437 81.622,131.972 81.614 C 132.839 81.602,136.015 80.717,139.400 79.545 C 140.060 79.317,141.140 78.978,141.800 78.792 C 144.467 78.042,148.979 76.282,155.734 73.357 C 157.457 72.611,159.077 71.994,159.334 71.986 C 159.590 71.979,160.520 71.625,161.400 71.200 C 163.110 70.374,165.048 70.189,165.958 70.766 M306.115 103.205 C 308.299 104.923,307.691 108.000,305.169 108.000 C 302.700 108.000,300.163 104.148,301.829 102.929 C 302.892 102.152,304.945 102.284,306.115 103.205 M312.240 110.879 C 313.242 111.803,314.315 113.049,314.625 113.648 C 314.935 114.248,315.866 115.550,316.694 116.541 C 317.522 117.533,318.740 119.181,319.400 120.204 C 320.060 121.226,321.086 122.814,321.681 123.731 C 323.541 126.603,326.285 131.707,327.202 134.000 C 327.685 135.210,328.693 137.610,329.440 139.334 C 330.188 141.057,330.806 142.677,330.814 142.934 C 330.821 143.190,331.175 144.120,331.600 145.000 C 332.025 145.880,332.379 146.803,332.386 147.051 C 332.394 147.299,332.670 147.726,333.000 148.000 C 333.368 148.305,333.600 149.182,333.600 150.265 C 333.600 151.242,333.957 152.732,334.400 153.600 C 334.855 154.492,335.200 155.958,335.200 157.000 C 335.200 158.065,335.548 159.514,336.031 160.461 C 336.689 161.751,336.808 162.491,336.599 164.011 C 336.426 165.269,336.509 166.252,336.840 166.865 C 337.356 167.817,337.931 173.070,338.191 179.200 C 338.343 182.780,338.357 183.462,338.357 187.000 C 338.357 190.654,338.352 190.872,338.162 194.600 C 338.061 196.580,337.907 200.090,337.819 202.400 C 337.731 204.710,337.460 207.950,337.217 209.600 C 336.973 211.250,336.635 213.956,336.465 215.613 C 336.294 217.270,336.009 218.862,335.830 219.151 C 335.651 219.441,335.280 221.235,335.004 223.139 C 334.529 226.419,334.251 227.791,333.206 232.000 C 332.961 232.990,332.511 234.880,332.207 236.200 C 331.427 239.586,330.779 241.975,330.199 243.600 C 329.925 244.370,329.242 246.440,328.682 248.200 C 326.921 253.737,324.417 252.466,325.702 246.687 C 326.055 245.099,326.452 242.863,326.584 241.718 C 326.715 240.573,327.088 238.885,327.411 237.968 C 327.735 237.050,328.000 235.516,328.000 234.558 C 328.000 233.600,328.255 232.138,328.566 231.308 C 328.877 230.479,329.229 228.348,329.347 226.574 C 329.466 224.800,329.771 222.820,330.024 222.174 C 330.277 221.528,330.641 217.940,330.832 214.200 C 331.024 210.460,331.357 206.050,331.573 204.400 C 332.088 200.456,332.085 185.363,331.567 181.800 C 331.344 180.260,331.006 176.840,330.816 174.200 C 330.627 171.560,330.185 168.327,329.836 167.016 C 329.486 165.705,329.200 163.854,329.200 162.903 C 329.200 161.952,328.930 160.528,328.600 159.738 C 328.270 158.949,328.000 157.733,328.000 157.037 C 328.000 156.342,327.640 154.748,327.200 153.496 C 326.760 152.244,326.394 150.810,326.386 150.310 C 326.378 149.809,326.114 148.950,325.800 148.400 C 325.486 147.850,325.222 147.001,325.214 146.514 C 325.206 146.026,324.951 145.036,324.646 144.314 C 324.341 143.591,323.727 142.010,323.281 140.800 C 321.255 135.298,320.154 132.699,318.121 128.616 C 315.908 124.171,311.777 117.565,309.690 115.134 C 307.592 112.690,307.263 111.248,308.550 110.142 C 309.995 108.898,310.117 108.923,312.240 110.879 M378.368 175.500 C 378.559 176.881,378.587 176.909,378.719 175.851 C 378.798 175.219,378.705 174.545,378.512 174.352 C 378.310 174.150,378.249 174.640,378.368 175.500 M376.411 174.785 C 375.904 175.105,375.916 175.193,376.492 175.414 C 377.282 175.717,378.112 175.305,377.783 174.772 C 377.495 174.307,377.162 174.310,376.411 174.785 M56.253 190.433 C 59.511 192.446,56.885 195.200,51.707 195.200 C 47.627 195.200,46.537 194.530,46.958 192.281 C 47.477 189.517,52.995 188.419,56.253 190.433 M59.895 197.011 C 61.120 197.869,61.478 200.117,60.602 201.453 C 59.823 202.641,56.973 202.621,52.940 201.397 C 51.873 201.074,50.250 200.807,49.333 200.804 C 44.487 200.792,45.378 198.140,50.369 197.721 C 51.930 197.590,53.520 197.245,53.903 196.954 C 54.877 196.215,58.811 196.252,59.895 197.011 M65.422 221.400 C 65.958 222.720,66.397 224.034,66.398 224.320 C 66.399 224.606,66.684 225.388,67.030 226.058 C 67.377 226.729,67.815 228.115,68.003 229.139 C 68.192 230.162,68.732 232.260,69.203 233.800 C 69.675 235.340,70.309 237.410,70.611 238.400 C 73.278 247.114,76.595 253.310,84.424 264.200 C 85.531 265.740,87.265 268.260,88.277 269.800 C 92.799 276.680,94.202 278.690,95.398 280.000 C 96.101 280.770,97.051 282.030,97.510 282.800 C 98.532 284.515,105.473 291.284,108.173 293.200 C 113.680 297.107,122.170 301.655,135.800 308.000 C 137.340 308.717,142.380 311.143,147.000 313.391 C 158.730 319.100,165.186 321.806,168.162 322.261 C 169.063 322.399,170.286 322.756,170.880 323.056 C 171.474 323.355,172.644 323.608,173.480 323.618 C 174.316 323.627,175.720 323.896,176.600 324.216 C 177.480 324.535,179.190 324.906,180.400 325.040 C 181.610 325.173,183.488 325.534,184.573 325.841 C 185.658 326.149,187.998 326.406,189.773 326.414 C 191.548 326.422,194.170 326.685,195.600 327.000 C 198.700 327.682,214.621 327.800,219.000 327.173 C 220.540 326.953,223.870 326.612,226.400 326.416 C 228.930 326.220,231.810 325.853,232.800 325.600 C 233.790 325.347,235.901 324.794,237.492 324.370 C 239.082 323.947,240.651 323.600,240.978 323.600 C 241.305 323.600,242.164 323.340,242.886 323.022 C 243.609 322.704,245.460 321.966,247.000 321.383 C 248.540 320.799,252.140 319.151,255.000 317.721 C 259.714 315.363,261.688 314.260,269.400 309.683 C 273.294 307.372,283.237 300.795,285.400 299.100 C 287.215 297.678,292.918 293.817,296.183 291.800 C 296.895 291.360,298.148 290.409,298.968 289.687 C 299.788 288.964,301.134 287.947,301.960 287.426 C 307.192 284.122,316.855 272.591,320.842 264.892 C 322.789 261.133,323.557 260.280,324.826 260.468 C 327.152 260.812,326.479 264.317,323.100 269.463 C 322.055 271.054,321.200 272.488,321.200 272.649 C 321.200 272.925,319.012 276.372,317.632 278.269 C 310.756 287.724,300.372 297.630,289.612 305.000 C 287.685 306.320,285.319 308.001,284.354 308.737 C 283.389 309.472,280.626 311.241,278.214 312.667 C 275.802 314.094,273.157 315.869,272.335 316.611 C 271.514 317.353,268.717 318.979,266.121 320.225 C 263.524 321.471,260.230 323.170,258.800 324.000 C 253.993 326.791,250.262 328.774,248.000 329.738 C 247.230 330.066,245.722 330.709,244.649 331.167 C 243.576 331.625,242.316 332.001,241.849 332.002 C 241.382 332.004,240.482 332.275,239.850 332.605 C 239.217 332.935,237.687 333.312,236.450 333.444 C 235.212 333.575,233.312 333.934,232.227 334.241 C 229.750 334.943,199.053 335.060,196.797 334.377 C 196.029 334.144,193.690 333.787,191.600 333.584 C 189.510 333.381,187.080 332.949,186.200 332.625 C 185.320 332.301,183.829 332.027,182.887 332.018 C 181.945 332.008,180.528 331.730,179.738 331.400 C 178.949 331.070,177.823 330.800,177.237 330.800 C 176.652 330.800,175.148 330.440,173.896 330.000 C 172.644 329.560,171.172 329.200,170.624 329.200 C 170.076 329.200,169.036 328.950,168.314 328.645 C 167.591 328.340,165.560 327.624,163.800 327.054 C 162.040 326.484,159.790 325.730,158.800 325.377 C 156.653 324.613,146.623 319.749,145.200 318.783 C 143.845 317.862,137.095 314.357,124.400 307.980 C 118.570 305.052,112.630 301.849,111.200 300.862 C 109.770 299.875,107.790 298.520,106.800 297.850 C 105.810 297.180,102.967 294.653,100.482 292.234 C 96.467 288.325,95.027 286.551,91.200 280.796 C 85.341 271.985,85.309 271.935,77.253 259.200 C 73.771 253.696,70.037 246.515,68.412 242.200 C 67.915 240.880,67.259 239.209,66.954 238.486 C 66.649 237.764,66.400 236.810,66.400 236.367 C 66.400 235.923,66.151 235.074,65.847 234.480 C 65.543 233.886,65.163 232.608,65.002 231.641 C 64.841 230.673,64.460 229.284,64.155 228.554 C 63.850 227.823,63.600 226.647,63.600 225.939 C 63.600 225.231,63.308 223.612,62.951 222.341 C 61.738 218.017,63.739 217.255,65.422 221.400 " stroke="none" fill="#bb2c34" fill-rule="evenodd"></path></g></svg>